{
 "cells": [
  {
   "cell_type": "code",
   "execution_count": 2,
   "id": "954a8dc8",
   "metadata": {},
   "outputs": [
    {
     "name": "stdout",
     "output_type": "stream",
     "text": [
      "Defaulting to user installation because normal site-packages is not writeable\n",
      "Collecting natsort\n",
      "  Downloading natsort-8.1.0-py3-none-any.whl (37 kB)\n",
      "Installing collected packages: natsort\n",
      "Successfully installed natsort-8.1.0\n",
      "\u001b[33mWARNING: You are using pip version 22.0.4; however, version 22.1.2 is available.\n",
      "You should consider upgrading via the '/usr/bin/python3 -m pip install --upgrade pip' command.\u001b[0m\u001b[33m\n",
      "\u001b[0m"
     ]
    }
   ],
   "source": [
    "! pip install natsort"
   ]
  },
  {
   "cell_type": "code",
   "execution_count": 6,
   "id": "93186db4",
   "metadata": {},
   "outputs": [
    {
     "name": "stdout",
     "output_type": "stream",
     "text": [
      "['input1.mp4', 'input2.mp4', 'input3.mp4', 'input4.mp4']\n",
      "ffmpeg -i input/input1.mp4 -ss 00 -to 5 -y output/input1.mp4\n"
     ]
    },
    {
     "name": "stderr",
     "output_type": "stream",
     "text": [
      "ffmpeg version 4.2.7-0ubuntu0.1 Copyright (c) 2000-2022 the FFmpeg developers\n",
      "  built with gcc 9 (Ubuntu 9.4.0-1ubuntu1~20.04.1)\n",
      "  configuration: --prefix=/usr --extra-version=0ubuntu0.1 --toolchain=hardened --libdir=/usr/lib/x86_64-linux-gnu --incdir=/usr/include/x86_64-linux-gnu --arch=amd64 --enable-gpl --disable-stripping --enable-avresample --disable-filter=resample --enable-avisynth --enable-gnutls --enable-ladspa --enable-libaom --enable-libass --enable-libbluray --enable-libbs2b --enable-libcaca --enable-libcdio --enable-libcodec2 --enable-libflite --enable-libfontconfig --enable-libfreetype --enable-libfribidi --enable-libgme --enable-libgsm --enable-libjack --enable-libmp3lame --enable-libmysofa --enable-libopenjpeg --enable-libopenmpt --enable-libopus --enable-libpulse --enable-librsvg --enable-librubberband --enable-libshine --enable-libsnappy --enable-libsoxr --enable-libspeex --enable-libssh --enable-libtheora --enable-libtwolame --enable-libvidstab --enable-libvorbis --enable-libvpx --enable-libwavpack --enable-libwebp --enable-libx265 --enable-libxml2 --enable-libxvid --enable-libzmq --enable-libzvbi --enable-lv2 --enable-omx --enable-openal --enable-opencl --enable-opengl --enable-sdl2 --enable-libdc1394 --enable-libdrm --enable-libiec61883 --enable-nvenc --enable-chromaprint --enable-frei0r --enable-libx264 --enable-shared\n",
      "  WARNING: library configuration mismatch\n",
      "  avcodec     configuration: --prefix=/usr --extra-version=0ubuntu0.1 --toolchain=hardened --libdir=/usr/lib/x86_64-linux-gnu --incdir=/usr/include/x86_64-linux-gnu --arch=amd64 --enable-gpl --disable-stripping --enable-avresample --disable-filter=resample --enable-avisynth --enable-gnutls --enable-ladspa --enable-libaom --enable-libass --enable-libbluray --enable-libbs2b --enable-libcaca --enable-libcdio --enable-libcodec2 --enable-libflite --enable-libfontconfig --enable-libfreetype --enable-libfribidi --enable-libgme --enable-libgsm --enable-libjack --enable-libmp3lame --enable-libmysofa --enable-libopenjpeg --enable-libopenmpt --enable-libopus --enable-libpulse --enable-librsvg --enable-librubberband --enable-libshine --enable-libsnappy --enable-libsoxr --enable-libspeex --enable-libssh --enable-libtheora --enable-libtwolame --enable-libvidstab --enable-libvorbis --enable-libvpx --enable-libwavpack --enable-libwebp --enable-libx265 --enable-libxml2 --enable-libxvid --enable-libzmq --enable-libzvbi --enable-lv2 --enable-omx --enable-openal --enable-opencl --enable-opengl --enable-sdl2 --enable-libdc1394 --enable-libdrm --enable-libiec61883 --enable-nvenc --enable-chromaprint --enable-frei0r --enable-libx264 --enable-shared --enable-version3 --disable-doc --disable-programs --enable-libaribb24 --enable-liblensfun --enable-libopencore_amrnb --enable-libopencore_amrwb --enable-libtesseract --enable-libvo_amrwbenc\n",
      "  libavutil      56. 31.100 / 56. 31.100\n",
      "  libavcodec     58. 54.100 / 58. 54.100\n",
      "  libavformat    58. 29.100 / 58. 29.100\n",
      "  libavdevice    58.  8.100 / 58.  8.100\n",
      "  libavfilter     7. 57.100 /  7. 57.100\n",
      "  libavresample   4.  0.  0 /  4.  0.  0\n",
      "  libswscale      5.  5.100 /  5.  5.100\n",
      "  libswresample   3.  5.100 /  3.  5.100\n",
      "  libpostproc    55.  5.100 / 55.  5.100\n",
      "Input #0, mov,mp4,m4a,3gp,3g2,mj2, from 'input/input1.mp4':\n",
      "  Metadata:\n",
      "    major_brand     : isom\n",
      "    minor_version   : 512\n",
      "    compatible_brands: isomiso2avc1mp41\n",
      "    encoder         : Lavf58.45.100\n",
      "  Duration: 00:00:14.02, start: 0.000000, bitrate: 382 kb/s\n",
      "    Stream #0:0(und): Video: h264 (High) (avc1 / 0x31637661), yuv420p, 640x360 [SAR 1:1 DAR 16:9], 247 kb/s, 25 fps, 25 tbr, 12800 tbn, 50 tbc (default)\n",
      "    Metadata:\n",
      "      handler_name    : VideoHandler\n",
      "    Stream #0:1(und): Audio: aac (LC) (mp4a / 0x6134706D), 48000 Hz, stereo, fltp, 128 kb/s (default)\n",
      "    Metadata:\n",
      "      handler_name    : SoundHandler\n",
      "Stream mapping:\n",
      "  Stream #0:0 -> #0:0 (h264 (native) -> h264 (libx264))\n",
      "  Stream #0:1 -> #0:1 (aac (native) -> aac (native))\n",
      "Press [q] to stop, [?] for help\n",
      "[libx264 @ 0x55669f66d100] using SAR=1/1\n",
      "[libx264 @ 0x55669f66d100] using cpu capabilities: MMX2 SSE2Fast SSSE3 SSE4.2 AVX FMA3 BMI2 AVX2 AVX512\n",
      "[libx264 @ 0x55669f66d100] profile High, level 3.0\n",
      "[libx264 @ 0x55669f66d100] 264 - core 155 r2917 0a84d98 - H.264/MPEG-4 AVC codec - Copyleft 2003-2018 - http://www.videolan.org/x264.html - options: cabac=1 ref=3 deblock=1:0:0 analyse=0x3:0x113 me=hex subme=7 psy=1 psy_rd=1.00:0.00 mixed_ref=1 me_range=16 chroma_me=1 trellis=1 8x8dct=1 cqm=0 deadzone=21,11 fast_pskip=1 chroma_qp_offset=-2 threads=6 lookahead_threads=1 sliced_threads=0 nr=0 decimate=1 interlaced=0 bluray_compat=0 constrained_intra=0 bframes=3 b_pyramid=2 b_adapt=1 b_bias=0 direct=1 weightb=1 open_gop=0 weightp=2 keyint=250 keyint_min=25 scenecut=40 intra_refresh=0 rc_lookahead=40 rc=crf mbtree=1 crf=23.0 qcomp=0.60 qpmin=0 qpmax=69 qpstep=4 ip_ratio=1.40 aq=1:1.00\n",
      "Output #0, mp4, to 'output/input1.mp4':\n",
      "  Metadata:\n",
      "    major_brand     : isom\n",
      "    minor_version   : 512\n",
      "    compatible_brands: isomiso2avc1mp41\n",
      "    encoder         : Lavf58.29.100\n",
      "    Stream #0:0(und): Video: h264 (libx264) (avc1 / 0x31637661), yuv420p, 640x360 [SAR 1:1 DAR 16:9], q=-1--1, 25 fps, 12800 tbn, 25 tbc (default)\n",
      "    Metadata:\n",
      "      handler_name    : VideoHandler\n",
      "      encoder         : Lavc58.54.100 libx264\n",
      "    Side data:\n",
      "      cpb: bitrate max/min/avg: 0/0/0 buffer size: 0 vbv_delay: -1\n",
      "    Stream #0:1(und): Audio: aac (LC) (mp4a / 0x6134706D), 48000 Hz, stereo, fltp, 128 kb/s (default)\n",
      "    Metadata:\n",
      "      handler_name    : SoundHandler\n",
      "      encoder         : Lavc58.54.100 aac\n",
      "frame=  125 fps=0.0 q=-1.0 Lsize=     273kB time=00:00:05.01 bitrate= 446.7kbits/s speed=6.39x    \n",
      "video:190kB audio:79kB subtitle:0kB other streams:0kB global headers:0kB muxing overhead: 1.837139%\n",
      "[libx264 @ 0x55669f66d100] frame I:1     Avg QP:20.55  size:  7908\n",
      "[libx264 @ 0x55669f66d100] frame P:57    Avg QP:20.35  size:  2393\n",
      "[libx264 @ 0x55669f66d100] frame B:67    Avg QP:23.77  size:   734\n",
      "[libx264 @ 0x55669f66d100] consecutive B-frames: 15.2% 33.6% 19.2% 32.0%\n",
      "[libx264 @ 0x55669f66d100] mb I  I16..4: 20.4% 64.9% 14.7%\n",
      "[libx264 @ 0x55669f66d100] mb P  I16..4:  1.7%  3.6%  0.5%  P16..4: 48.4%  8.8%  4.1%  0.0%  0.0%    skip:32.9%\n",
      "[libx264 @ 0x55669f66d100] mb B  I16..4:  0.1%  0.1%  0.0%  B16..8: 39.4%  2.4%  0.2%  direct: 0.3%  skip:57.5%  L0:41.3% L1:55.6% BI: 3.1%\n",
      "[libx264 @ 0x55669f66d100] 8x8 transform intra:62.5% inter:86.1%\n",
      "[libx264 @ 0x55669f66d100] coded y,uvDC,uvAC intra: 33.6% 51.4% 11.7% inter: 6.5% 11.3% 0.1%\n",
      "[libx264 @ 0x55669f66d100] i16 v,h,dc,p: 21% 36% 29% 14%\n",
      "[libx264 @ 0x55669f66d100] i8 v,h,dc,ddl,ddr,vr,hd,vl,hu: 21% 22% 39%  3%  3%  3%  3%  3%  3%\n",
      "[libx264 @ 0x55669f66d100] i4 v,h,dc,ddl,ddr,vr,hd,vl,hu: 32% 18% 19%  4%  5%  6%  5%  7%  4%\n",
      "[libx264 @ 0x55669f66d100] i8c dc,h,v,p: 57% 22% 17%  4%\n",
      "[libx264 @ 0x55669f66d100] Weighted P-Frames: Y:0.0% UV:0.0%\n",
      "[libx264 @ 0x55669f66d100] ref P L0: 73.7%  7.7% 14.2%  4.3%\n",
      "[libx264 @ 0x55669f66d100] ref B L0: 90.6%  7.9%  1.5%\n",
      "[libx264 @ 0x55669f66d100] ref B L1: 97.5%  2.5%\n",
      "[libx264 @ 0x55669f66d100] kb/s:309.63\n",
      "[aac @ 0x55669f694f00] Qavg: 241.894\n",
      "ffmpeg version 4.2.7-0ubuntu0.1 Copyright (c) 2000-2022 the FFmpeg developers\n",
      "  built with gcc 9 (Ubuntu 9.4.0-1ubuntu1~20.04.1)\n",
      "  configuration: --prefix=/usr --extra-version=0ubuntu0.1 --toolchain=hardened --libdir=/usr/lib/x86_64-linux-gnu --incdir=/usr/include/x86_64-linux-gnu --arch=amd64 --enable-gpl --disable-stripping --enable-avresample --disable-filter=resample --enable-avisynth --enable-gnutls --enable-ladspa --enable-libaom --enable-libass --enable-libbluray --enable-libbs2b --enable-libcaca --enable-libcdio --enable-libcodec2 --enable-libflite --enable-libfontconfig --enable-libfreetype --enable-libfribidi --enable-libgme --enable-libgsm --enable-libjack --enable-libmp3lame --enable-libmysofa --enable-libopenjpeg --enable-libopenmpt --enable-libopus --enable-libpulse --enable-librsvg --enable-librubberband --enable-libshine --enable-libsnappy --enable-libsoxr --enable-libspeex --enable-libssh --enable-libtheora --enable-libtwolame --enable-libvidstab --enable-libvorbis --enable-libvpx --enable-libwavpack --enable-libwebp --enable-libx265 --enable-libxml2 --enable-libxvid --enable-libzmq --enable-libzvbi --enable-lv2 --enable-omx --enable-openal --enable-opencl --enable-opengl --enable-sdl2 --enable-libdc1394 --enable-libdrm --enable-libiec61883 --enable-nvenc --enable-chromaprint --enable-frei0r --enable-libx264 --enable-shared\n",
      "  WARNING: library configuration mismatch\n",
      "  avcodec     configuration: --prefix=/usr --extra-version=0ubuntu0.1 --toolchain=hardened --libdir=/usr/lib/x86_64-linux-gnu --incdir=/usr/include/x86_64-linux-gnu --arch=amd64 --enable-gpl --disable-stripping --enable-avresample --disable-filter=resample --enable-avisynth --enable-gnutls --enable-ladspa --enable-libaom --enable-libass --enable-libbluray --enable-libbs2b --enable-libcaca --enable-libcdio --enable-libcodec2 --enable-libflite --enable-libfontconfig --enable-libfreetype --enable-libfribidi --enable-libgme --enable-libgsm --enable-libjack --enable-libmp3lame --enable-libmysofa --enable-libopenjpeg --enable-libopenmpt --enable-libopus --enable-libpulse --enable-librsvg --enable-librubberband --enable-libshine --enable-libsnappy --enable-libsoxr --enable-libspeex --enable-libssh --enable-libtheora --enable-libtwolame --enable-libvidstab --enable-libvorbis --enable-libvpx --enable-libwavpack --enable-libwebp --enable-libx265 --enable-libxml2 --enable-libxvid --enable-libzmq --enable-libzvbi --enable-lv2 --enable-omx --enable-openal --enable-opencl --enable-opengl --enable-sdl2 --enable-libdc1394 --enable-libdrm --enable-libiec61883 --enable-nvenc --enable-chromaprint --enable-frei0r --enable-libx264 --enable-shared --enable-version3 --disable-doc --disable-programs --enable-libaribb24 --enable-liblensfun --enable-libopencore_amrnb --enable-libopencore_amrwb --enable-libtesseract --enable-libvo_amrwbenc\n",
      "  libavutil      56. 31.100 / 56. 31.100\n",
      "  libavcodec     58. 54.100 / 58. 54.100\n",
      "  libavformat    58. 29.100 / 58. 29.100\n",
      "  libavdevice    58.  8.100 / 58.  8.100\n",
      "  libavfilter     7. 57.100 /  7. 57.100\n",
      "  libavresample   4.  0.  0 /  4.  0.  0\n",
      "  libswscale      5.  5.100 /  5.  5.100\n",
      "  libswresample   3.  5.100 /  3.  5.100\n",
      "  libpostproc    55.  5.100 / 55.  5.100\n",
      "Input #0, mov,mp4,m4a,3gp,3g2,mj2, from 'input/input2.mp4':\n",
      "  Metadata:\n",
      "    major_brand     : isom\n",
      "    minor_version   : 512\n",
      "    compatible_brands: isomiso2avc1mp41\n",
      "    encoder         : Lavf58.45.100\n",
      "  Duration: 00:00:14.02, start: 0.000000, bitrate: 346 kb/s\n",
      "    Stream #0:0(und): Video: h264 (High) (avc1 / 0x31637661), yuv420p, 640x360 [SAR 1:1 DAR 16:9], 211 kb/s, 25 fps, 25 tbr, 12800 tbn, 50 tbc (default)\n",
      "    Metadata:\n",
      "      handler_name    : VideoHandler\n",
      "    Stream #0:1(und): Audio: aac (LC) (mp4a / 0x6134706D), 48000 Hz, stereo, fltp, 128 kb/s (default)\n",
      "    Metadata:\n",
      "      handler_name    : SoundHandler\n",
      "Stream mapping:\n",
      "  Stream #0:0 -> #0:0 (h264 (native) -> h264 (libx264))\n",
      "  Stream #0:1 -> #0:1 (aac (native) -> aac (native))\n",
      "Press [q] to stop, [?] for help\n",
      "[libx264 @ 0x5625a8d98100] using SAR=1/1\n",
      "[libx264 @ 0x5625a8d98100] using cpu capabilities: MMX2 SSE2Fast SSSE3 SSE4.2 AVX FMA3 BMI2 AVX2 AVX512\n",
      "[libx264 @ 0x5625a8d98100] profile High, level 3.0\n",
      "[libx264 @ 0x5625a8d98100] 264 - core 155 r2917 0a84d98 - H.264/MPEG-4 AVC codec - Copyleft 2003-2018 - http://www.videolan.org/x264.html - options: cabac=1 ref=3 deblock=1:0:0 analyse=0x3:0x113 me=hex subme=7 psy=1 psy_rd=1.00:0.00 mixed_ref=1 me_range=16 chroma_me=1 trellis=1 8x8dct=1 cqm=0 deadzone=21,11 fast_pskip=1 chroma_qp_offset=-2 threads=6 lookahead_threads=1 sliced_threads=0 nr=0 decimate=1 interlaced=0 bluray_compat=0 constrained_intra=0 bframes=3 b_pyramid=2 b_adapt=1 b_bias=0 direct=1 weightb=1 open_gop=0 weightp=2 keyint=250 keyint_min=25 scenecut=40 intra_refresh=0 rc_lookahead=40 rc=crf mbtree=1 crf=23.0 qcomp=0.60 qpmin=0 qpmax=69 qpstep=4 ip_ratio=1.40 aq=1:1.00\n",
      "Output #0, mp4, to 'output/input2.mp4':\n",
      "  Metadata:\n",
      "    major_brand     : isom\n",
      "    minor_version   : 512\n",
      "    compatible_brands: isomiso2avc1mp41\n",
      "    encoder         : Lavf58.29.100\n",
      "    Stream #0:0(und): Video: h264 (libx264) (avc1 / 0x31637661), yuv420p, 640x360 [SAR 1:1 DAR 16:9], q=-1--1, 25 fps, 12800 tbn, 25 tbc (default)\n",
      "    Metadata:\n",
      "      handler_name    : VideoHandler\n",
      "      encoder         : Lavc58.54.100 libx264\n",
      "    Side data:\n",
      "      cpb: bitrate max/min/avg: 0/0/0 buffer size: 0 vbv_delay: -1\n",
      "    Stream #0:1(und): Audio: aac (LC) (mp4a / 0x6134706D), 48000 Hz, stereo, fltp, 128 kb/s (default)\n",
      "    Metadata:\n",
      "      handler_name    : SoundHandler\n",
      "      encoder         : Lavc58.54.100 aac\n"
     ]
    },
    {
     "name": "stdout",
     "output_type": "stream",
     "text": [
      "ffmpeg -i input/input2.mp4 -ss 00 -to 5 -y output/input2.mp4\n"
     ]
    },
    {
     "name": "stderr",
     "output_type": "stream",
     "text": [
      "frame=  125 fps=0.0 q=-1.0 Lsize=     241kB time=00:00:05.01 bitrate= 394.0kbits/s speed=6.82x    \n",
      "video:158kB audio:79kB subtitle:0kB other streams:0kB global headers:0kB muxing overhead: 2.097969%\n",
      "[libx264 @ 0x5625a8d98100] frame I:1     Avg QP:19.44  size: 13349\n",
      "[libx264 @ 0x5625a8d98100] frame P:55    Avg QP:20.70  size:  2051\n",
      "[libx264 @ 0x5625a8d98100] frame B:69    Avg QP:24.65  size:   500\n",
      "[libx264 @ 0x5625a8d98100] consecutive B-frames: 18.4% 20.8%  9.6% 51.2%\n",
      "[libx264 @ 0x5625a8d98100] mb I  I16..4:  1.6% 85.8% 12.6%\n",
      "[libx264 @ 0x5625a8d98100] mb P  I16..4:  1.4%  4.2%  0.3%  P16..4: 42.8%  7.5%  3.3%  0.0%  0.0%    skip:40.5%\n",
      "[libx264 @ 0x5625a8d98100] mb B  I16..4:  0.1%  0.1%  0.0%  B16..8: 36.5%  0.7%  0.1%  direct: 0.2%  skip:62.4%  L0:39.8% L1:59.0% BI: 1.2%\n",
      "[libx264 @ 0x5625a8d98100] 8x8 transform intra:73.6% inter:87.7%\n",
      "[libx264 @ 0x5625a8d98100] coded y,uvDC,uvAC intra: 54.1% 62.1% 11.8% inter: 5.5% 9.8% 0.1%\n",
      "[libx264 @ 0x5625a8d98100] i16 v,h,dc,p: 11% 59% 18% 13%\n",
      "[libx264 @ 0x5625a8d98100] i8 v,h,dc,ddl,ddr,vr,hd,vl,hu: 13% 43% 27%  2%  2%  1%  6%  1%  4%\n",
      "[libx264 @ 0x5625a8d98100] i4 v,h,dc,ddl,ddr,vr,hd,vl,hu: 22% 33% 17%  3%  4%  5%  6%  4%  5%\n",
      "[libx264 @ 0x5625a8d98100] i8c dc,h,v,p: 53% 32% 12%  3%\n",
      "[libx264 @ 0x5625a8d98100] Weighted P-Frames: Y:0.0% UV:0.0%\n",
      "[libx264 @ 0x5625a8d98100] ref P L0: 81.0% 10.9%  6.0%  2.1%\n",
      "[libx264 @ 0x5625a8d98100] ref B L0: 95.2%  3.8%  1.0%\n",
      "[libx264 @ 0x5625a8d98100] ref B L1: 98.1%  1.9%\n",
      "[libx264 @ 0x5625a8d98100] kb/s:257.04\n",
      "[aac @ 0x5625a8d99d80] Qavg: 248.785\n",
      "ffmpeg version 4.2.7-0ubuntu0.1 Copyright (c) 2000-2022 the FFmpeg developers\n",
      "  built with gcc 9 (Ubuntu 9.4.0-1ubuntu1~20.04.1)\n",
      "  configuration: --prefix=/usr --extra-version=0ubuntu0.1 --toolchain=hardened --libdir=/usr/lib/x86_64-linux-gnu --incdir=/usr/include/x86_64-linux-gnu --arch=amd64 --enable-gpl --disable-stripping --enable-avresample --disable-filter=resample --enable-avisynth --enable-gnutls --enable-ladspa --enable-libaom --enable-libass --enable-libbluray --enable-libbs2b --enable-libcaca --enable-libcdio --enable-libcodec2 --enable-libflite --enable-libfontconfig --enable-libfreetype --enable-libfribidi --enable-libgme --enable-libgsm --enable-libjack --enable-libmp3lame --enable-libmysofa --enable-libopenjpeg --enable-libopenmpt --enable-libopus --enable-libpulse --enable-librsvg --enable-librubberband --enable-libshine --enable-libsnappy --enable-libsoxr --enable-libspeex --enable-libssh --enable-libtheora --enable-libtwolame --enable-libvidstab --enable-libvorbis --enable-libvpx --enable-libwavpack --enable-libwebp --enable-libx265 --enable-libxml2 --enable-libxvid --enable-libzmq --enable-libzvbi --enable-lv2 --enable-omx --enable-openal --enable-opencl --enable-opengl --enable-sdl2 --enable-libdc1394 --enable-libdrm --enable-libiec61883 --enable-nvenc --enable-chromaprint --enable-frei0r --enable-libx264 --enable-shared\n",
      "  WARNING: library configuration mismatch\n",
      "  avcodec     configuration: --prefix=/usr --extra-version=0ubuntu0.1 --toolchain=hardened --libdir=/usr/lib/x86_64-linux-gnu --incdir=/usr/include/x86_64-linux-gnu --arch=amd64 --enable-gpl --disable-stripping --enable-avresample --disable-filter=resample --enable-avisynth --enable-gnutls --enable-ladspa --enable-libaom --enable-libass --enable-libbluray --enable-libbs2b --enable-libcaca --enable-libcdio --enable-libcodec2 --enable-libflite --enable-libfontconfig --enable-libfreetype --enable-libfribidi --enable-libgme --enable-libgsm --enable-libjack --enable-libmp3lame --enable-libmysofa --enable-libopenjpeg --enable-libopenmpt --enable-libopus --enable-libpulse --enable-librsvg --enable-librubberband --enable-libshine --enable-libsnappy --enable-libsoxr --enable-libspeex --enable-libssh --enable-libtheora --enable-libtwolame --enable-libvidstab --enable-libvorbis --enable-libvpx --enable-libwavpack --enable-libwebp --enable-libx265 --enable-libxml2 --enable-libxvid --enable-libzmq --enable-libzvbi --enable-lv2 --enable-omx --enable-openal --enable-opencl --enable-opengl --enable-sdl2 --enable-libdc1394 --enable-libdrm --enable-libiec61883 --enable-nvenc --enable-chromaprint --enable-frei0r --enable-libx264 --enable-shared --enable-version3 --disable-doc --disable-programs --enable-libaribb24 --enable-liblensfun --enable-libopencore_amrnb --enable-libopencore_amrwb --enable-libtesseract --enable-libvo_amrwbenc\n",
      "  libavutil      56. 31.100 / 56. 31.100\n",
      "  libavcodec     58. 54.100 / 58. 54.100\n",
      "  libavformat    58. 29.100 / 58. 29.100\n",
      "  libavdevice    58.  8.100 / 58.  8.100\n",
      "  libavfilter     7. 57.100 /  7. 57.100\n",
      "  libavresample   4.  0.  0 /  4.  0.  0\n",
      "  libswscale      5.  5.100 /  5.  5.100\n",
      "  libswresample   3.  5.100 /  3.  5.100\n",
      "  libpostproc    55.  5.100 / 55.  5.100\n",
      "Input #0, mov,mp4,m4a,3gp,3g2,mj2, from 'input/input3.mp4':\n",
      "  Metadata:\n",
      "    major_brand     : isom\n",
      "    minor_version   : 512\n",
      "    compatible_brands: isomiso2avc1mp41\n",
      "    encoder         : Lavf58.45.100\n",
      "  Duration: 00:00:14.02, start: 0.000000, bitrate: 501 kb/s\n",
      "    Stream #0:0(und): Video: h264 (High) (avc1 / 0x31637661), yuv420p, 640x360 [SAR 1:1 DAR 16:9], 366 kb/s, 25 fps, 25 tbr, 12800 tbn, 50 tbc (default)\n",
      "    Metadata:\n",
      "      handler_name    : VideoHandler\n",
      "    Stream #0:1(und): Audio: aac (LC) (mp4a / 0x6134706D), 48000 Hz, stereo, fltp, 128 kb/s (default)\n",
      "    Metadata:\n",
      "      handler_name    : SoundHandler\n",
      "Stream mapping:\n",
      "  Stream #0:0 -> #0:0 (h264 (native) -> h264 (libx264))\n",
      "  Stream #0:1 -> #0:1 (aac (native) -> aac (native))\n",
      "Press [q] to stop, [?] for help\n",
      "[libx264 @ 0x56015e230b40] using SAR=1/1\n",
      "[libx264 @ 0x56015e230b40] using cpu capabilities: MMX2 SSE2Fast SSSE3 SSE4.2 AVX FMA3 BMI2 AVX2 AVX512\n",
      "[libx264 @ 0x56015e230b40] profile High, level 3.0\n",
      "[libx264 @ 0x56015e230b40] 264 - core 155 r2917 0a84d98 - H.264/MPEG-4 AVC codec - Copyleft 2003-2018 - http://www.videolan.org/x264.html - options: cabac=1 ref=3 deblock=1:0:0 analyse=0x3:0x113 me=hex subme=7 psy=1 psy_rd=1.00:0.00 mixed_ref=1 me_range=16 chroma_me=1 trellis=1 8x8dct=1 cqm=0 deadzone=21,11 fast_pskip=1 chroma_qp_offset=-2 threads=6 lookahead_threads=1 sliced_threads=0 nr=0 decimate=1 interlaced=0 bluray_compat=0 constrained_intra=0 bframes=3 b_pyramid=2 b_adapt=1 b_bias=0 direct=1 weightb=1 open_gop=0 weightp=2 keyint=250 keyint_min=25 scenecut=40 intra_refresh=0 rc_lookahead=40 rc=crf mbtree=1 crf=23.0 qcomp=0.60 qpmin=0 qpmax=69 qpstep=4 ip_ratio=1.40 aq=1:1.00\n",
      "Output #0, mp4, to 'output/input3.mp4':\n",
      "  Metadata:\n",
      "    major_brand     : isom\n",
      "    minor_version   : 512\n",
      "    compatible_brands: isomiso2avc1mp41\n",
      "    encoder         : Lavf58.29.100\n",
      "    Stream #0:0(und): Video: h264 (libx264) (avc1 / 0x31637661), yuv420p, 640x360 [SAR 1:1 DAR 16:9], q=-1--1, 25 fps, 12800 tbn, 25 tbc (default)\n",
      "    Metadata:\n",
      "      handler_name    : VideoHandler\n",
      "      encoder         : Lavc58.54.100 libx264\n",
      "    Side data:\n",
      "      cpb: bitrate max/min/avg: 0/0/0 buffer size: 0 vbv_delay: -1\n",
      "    Stream #0:1(und): Audio: aac (LC) (mp4a / 0x6134706D), 48000 Hz, stereo, fltp, 128 kb/s (default)\n",
      "    Metadata:\n",
      "      handler_name    : SoundHandler\n",
      "      encoder         : Lavc58.54.100 aac\n"
     ]
    },
    {
     "name": "stdout",
     "output_type": "stream",
     "text": [
      "ffmpeg -i input/input3.mp4 -ss 00 -to 5 -y output/input3.mp4\n"
     ]
    },
    {
     "name": "stderr",
     "output_type": "stream",
     "text": [
      "frame=  125 fps=0.0 q=-1.0 Lsize=     307kB time=00:00:05.01 bitrate= 502.1kbits/s speed=6.36x    \n",
      "video:223kB audio:79kB subtitle:0kB other streams:0kB global headers:0kB muxing overhead: 1.638968%\n",
      "[libx264 @ 0x56015e230b40] frame I:1     Avg QP:20.12  size:  5836\n",
      "[libx264 @ 0x56015e230b40] frame P:64    Avg QP:21.37  size:  2636\n",
      "[libx264 @ 0x56015e230b40] frame B:60    Avg QP:25.05  size:   894\n",
      "[libx264 @ 0x56015e230b40] consecutive B-frames: 19.2% 48.0%  7.2% 25.6%\n",
      "[libx264 @ 0x56015e230b40] mb I  I16..4: 16.2% 74.8%  9.0%\n",
      "[libx264 @ 0x56015e230b40] mb P  I16..4:  3.1%  9.7%  1.0%  P16..4: 42.8%  8.0%  2.7%  0.0%  0.0%    skip:32.8%\n",
      "[libx264 @ 0x56015e230b40] mb B  I16..4:  0.3%  0.6%  0.1%  B16..8: 37.5%  3.4%  0.3%  direct: 0.4%  skip:57.4%  L0:45.0% L1:52.5% BI: 2.5%\n",
      "[libx264 @ 0x56015e230b40] 8x8 transform intra:70.6% inter:88.4%\n",
      "[libx264 @ 0x56015e230b40] coded y,uvDC,uvAC intra: 36.8% 51.7% 10.5% inter: 7.1% 11.8% 0.0%\n",
      "[libx264 @ 0x56015e230b40] i16 v,h,dc,p: 28% 35% 26% 12%\n",
      "[libx264 @ 0x56015e230b40] i8 v,h,dc,ddl,ddr,vr,hd,vl,hu: 22% 22% 34%  3%  3%  4%  3%  4%  5%\n",
      "[libx264 @ 0x56015e230b40] i4 v,h,dc,ddl,ddr,vr,hd,vl,hu: 28% 16% 21%  4%  7%  9%  5%  5%  3%\n",
      "[libx264 @ 0x56015e230b40] i8c dc,h,v,p: 54% 23% 19%  4%\n",
      "[libx264 @ 0x56015e230b40] Weighted P-Frames: Y:0.0% UV:0.0%\n",
      "[libx264 @ 0x56015e230b40] ref P L0: 77.1% 10.4%  9.5%  3.0%\n",
      "[libx264 @ 0x56015e230b40] ref B L0: 93.7%  6.0%  0.3%\n",
      "[libx264 @ 0x56015e230b40] ref B L1: 99.1%  0.9%\n",
      "[libx264 @ 0x56015e230b40] kb/s:365.06\n",
      "[aac @ 0x56015e229080] Qavg: 249.991\n",
      "ffmpeg version 4.2.7-0ubuntu0.1 Copyright (c) 2000-2022 the FFmpeg developers\n",
      "  built with gcc 9 (Ubuntu 9.4.0-1ubuntu1~20.04.1)\n",
      "  configuration: --prefix=/usr --extra-version=0ubuntu0.1 --toolchain=hardened --libdir=/usr/lib/x86_64-linux-gnu --incdir=/usr/include/x86_64-linux-gnu --arch=amd64 --enable-gpl --disable-stripping --enable-avresample --disable-filter=resample --enable-avisynth --enable-gnutls --enable-ladspa --enable-libaom --enable-libass --enable-libbluray --enable-libbs2b --enable-libcaca --enable-libcdio --enable-libcodec2 --enable-libflite --enable-libfontconfig --enable-libfreetype --enable-libfribidi --enable-libgme --enable-libgsm --enable-libjack --enable-libmp3lame --enable-libmysofa --enable-libopenjpeg --enable-libopenmpt --enable-libopus --enable-libpulse --enable-librsvg --enable-librubberband --enable-libshine --enable-libsnappy --enable-libsoxr --enable-libspeex --enable-libssh --enable-libtheora --enable-libtwolame --enable-libvidstab --enable-libvorbis --enable-libvpx --enable-libwavpack --enable-libwebp --enable-libx265 --enable-libxml2 --enable-libxvid --enable-libzmq --enable-libzvbi --enable-lv2 --enable-omx --enable-openal --enable-opencl --enable-opengl --enable-sdl2 --enable-libdc1394 --enable-libdrm --enable-libiec61883 --enable-nvenc --enable-chromaprint --enable-frei0r --enable-libx264 --enable-shared\n",
      "  WARNING: library configuration mismatch\n",
      "  avcodec     configuration: --prefix=/usr --extra-version=0ubuntu0.1 --toolchain=hardened --libdir=/usr/lib/x86_64-linux-gnu --incdir=/usr/include/x86_64-linux-gnu --arch=amd64 --enable-gpl --disable-stripping --enable-avresample --disable-filter=resample --enable-avisynth --enable-gnutls --enable-ladspa --enable-libaom --enable-libass --enable-libbluray --enable-libbs2b --enable-libcaca --enable-libcdio --enable-libcodec2 --enable-libflite --enable-libfontconfig --enable-libfreetype --enable-libfribidi --enable-libgme --enable-libgsm --enable-libjack --enable-libmp3lame --enable-libmysofa --enable-libopenjpeg --enable-libopenmpt --enable-libopus --enable-libpulse --enable-librsvg --enable-librubberband --enable-libshine --enable-libsnappy --enable-libsoxr --enable-libspeex --enable-libssh --enable-libtheora --enable-libtwolame --enable-libvidstab --enable-libvorbis --enable-libvpx --enable-libwavpack --enable-libwebp --enable-libx265 --enable-libxml2 --enable-libxvid --enable-libzmq --enable-libzvbi --enable-lv2 --enable-omx --enable-openal --enable-opencl --enable-opengl --enable-sdl2 --enable-libdc1394 --enable-libdrm --enable-libiec61883 --enable-nvenc --enable-chromaprint --enable-frei0r --enable-libx264 --enable-shared --enable-version3 --disable-doc --disable-programs --enable-libaribb24 --enable-liblensfun --enable-libopencore_amrnb --enable-libopencore_amrwb --enable-libtesseract --enable-libvo_amrwbenc\n",
      "  libavutil      56. 31.100 / 56. 31.100\n",
      "  libavcodec     58. 54.100 / 58. 54.100\n",
      "  libavformat    58. 29.100 / 58. 29.100\n",
      "  libavdevice    58.  8.100 / 58.  8.100\n",
      "  libavfilter     7. 57.100 /  7. 57.100\n",
      "  libavresample   4.  0.  0 /  4.  0.  0\n",
      "  libswscale      5.  5.100 /  5.  5.100\n",
      "  libswresample   3.  5.100 /  3.  5.100\n",
      "  libpostproc    55.  5.100 / 55.  5.100\n",
      "Input #0, mov,mp4,m4a,3gp,3g2,mj2, from 'input/input4.mp4':\n",
      "  Metadata:\n",
      "    major_brand     : isom\n",
      "    minor_version   : 512\n",
      "    compatible_brands: isomiso2avc1mp41\n",
      "    encoder         : Lavf58.45.100\n",
      "  Duration: 00:00:14.02, start: 0.000000, bitrate: 336 kb/s\n",
      "    Stream #0:0(und): Video: h264 (High) (avc1 / 0x31637661), yuv420p, 640x360 [SAR 1:1 DAR 16:9], 201 kb/s, 25 fps, 25 tbr, 12800 tbn, 50 tbc (default)\n",
      "    Metadata:\n",
      "      handler_name    : VideoHandler\n",
      "    Stream #0:1(und): Audio: aac (LC) (mp4a / 0x6134706D), 48000 Hz, stereo, fltp, 128 kb/s (default)\n",
      "    Metadata:\n",
      "      handler_name    : SoundHandler\n",
      "Stream mapping:\n",
      "  Stream #0:0 -> #0:0 (h264 (native) -> h264 (libx264))\n",
      "  Stream #0:1 -> #0:1 (aac (native) -> aac (native))\n",
      "Press [q] to stop, [?] for help\n",
      "[libx264 @ 0x55dac7c2e080] using SAR=1/1\n",
      "[libx264 @ 0x55dac7c2e080] using cpu capabilities: MMX2 SSE2Fast SSSE3 SSE4.2 AVX FMA3 BMI2 AVX2 AVX512\n",
      "[libx264 @ 0x55dac7c2e080] profile High, level 3.0\n",
      "[libx264 @ 0x55dac7c2e080] 264 - core 155 r2917 0a84d98 - H.264/MPEG-4 AVC codec - Copyleft 2003-2018 - http://www.videolan.org/x264.html - options: cabac=1 ref=3 deblock=1:0:0 analyse=0x3:0x113 me=hex subme=7 psy=1 psy_rd=1.00:0.00 mixed_ref=1 me_range=16 chroma_me=1 trellis=1 8x8dct=1 cqm=0 deadzone=21,11 fast_pskip=1 chroma_qp_offset=-2 threads=6 lookahead_threads=1 sliced_threads=0 nr=0 decimate=1 interlaced=0 bluray_compat=0 constrained_intra=0 bframes=3 b_pyramid=2 b_adapt=1 b_bias=0 direct=1 weightb=1 open_gop=0 weightp=2 keyint=250 keyint_min=25 scenecut=40 intra_refresh=0 rc_lookahead=40 rc=crf mbtree=1 crf=23.0 qcomp=0.60 qpmin=0 qpmax=69 qpstep=4 ip_ratio=1.40 aq=1:1.00\n",
      "Output #0, mp4, to 'output/input4.mp4':\n",
      "  Metadata:\n",
      "    major_brand     : isom\n",
      "    minor_version   : 512\n",
      "    compatible_brands: isomiso2avc1mp41\n",
      "    encoder         : Lavf58.29.100\n",
      "    Stream #0:0(und): Video: h264 (libx264) (avc1 / 0x31637661), yuv420p, 640x360 [SAR 1:1 DAR 16:9], q=-1--1, 25 fps, 12800 tbn, 25 tbc (default)\n",
      "    Metadata:\n",
      "      handler_name    : VideoHandler\n",
      "      encoder         : Lavc58.54.100 libx264\n",
      "    Side data:\n",
      "      cpb: bitrate max/min/avg: 0/0/0 buffer size: 0 vbv_delay: -1\n",
      "    Stream #0:1(und): Audio: aac (LC) (mp4a / 0x6134706D), 48000 Hz, stereo, fltp, 128 kb/s (default)\n",
      "    Metadata:\n",
      "      handler_name    : SoundHandler\n",
      "      encoder         : Lavc58.54.100 aac\n"
     ]
    },
    {
     "name": "stdout",
     "output_type": "stream",
     "text": [
      "ffmpeg -i input/input4.mp4 -ss 00 -to 5 -y output/input4.mp4\n",
      "3.212383508682251 total_time\n"
     ]
    },
    {
     "name": "stderr",
     "output_type": "stream",
     "text": [
      "frame=  125 fps=0.0 q=-1.0 Lsize=     225kB time=00:00:05.01 bitrate= 367.2kbits/s speed= 7.2x    \n",
      "video:141kB audio:79kB subtitle:0kB other streams:0kB global headers:0kB muxing overhead: 2.305565%\n",
      "[libx264 @ 0x55dac7c2e080] frame I:1     Avg QP:18.29  size:  6637\n",
      "[libx264 @ 0x55dac7c2e080] frame P:44    Avg QP:19.52  size:  2093\n",
      "[libx264 @ 0x55dac7c2e080] frame B:80    Avg QP:22.38  size:   561\n",
      "[libx264 @ 0x55dac7c2e080] consecutive B-frames:  4.8% 25.6% 12.0% 57.6%\n",
      "[libx264 @ 0x55dac7c2e080] mb I  I16..4: 13.0% 79.1%  7.8%\n",
      "[libx264 @ 0x55dac7c2e080] mb P  I16..4:  2.4%  3.1%  0.4%  P16..4: 47.6%  7.6%  3.7%  0.0%  0.0%    skip:35.2%\n",
      "[libx264 @ 0x55dac7c2e080] mb B  I16..4:  0.1%  0.1%  0.0%  B16..8: 31.8%  1.2%  0.1%  direct: 0.5%  skip:66.1%  L0:46.4% L1:51.9% BI: 1.8%\n",
      "[libx264 @ 0x55dac7c2e080] 8x8 transform intra:59.3% inter:90.1%\n",
      "[libx264 @ 0x55dac7c2e080] coded y,uvDC,uvAC intra: 34.5% 43.9% 8.0% inter: 4.6% 9.1% 0.1%\n",
      "[libx264 @ 0x55dac7c2e080] i16 v,h,dc,p: 12% 47% 28% 13%\n",
      "[libx264 @ 0x55dac7c2e080] i8 v,h,dc,ddl,ddr,vr,hd,vl,hu: 17% 35% 38%  1%  1%  1%  3%  1%  3%\n",
      "[libx264 @ 0x55dac7c2e080] i4 v,h,dc,ddl,ddr,vr,hd,vl,hu: 27% 23% 22%  3%  6%  6%  5%  4%  4%\n",
      "[libx264 @ 0x55dac7c2e080] i8c dc,h,v,p: 59% 26% 14%  2%\n",
      "[libx264 @ 0x55dac7c2e080] Weighted P-Frames: Y:0.0% UV:0.0%\n",
      "[libx264 @ 0x55dac7c2e080] ref P L0: 67.6%  5.9% 19.5%  7.0%\n",
      "[libx264 @ 0x55dac7c2e080] ref B L0: 87.2% 10.2%  2.6%\n",
      "[libx264 @ 0x55dac7c2e080] ref B L1: 97.8%  2.2%\n",
      "[libx264 @ 0x55dac7c2e080] kb/s:229.84\n",
      "[aac @ 0x55dac7c5cb80] Qavg: 245.668\n"
     ]
    }
   ],
   "source": [
    "#crop video\n",
    "\n",
    "import os \n",
    "import natsort\n",
    "import time\n",
    "\n",
    "out_dir = \"output/\"\n",
    "def crop_video(dir):\n",
    "    stime = time.time()\n",
    "    \n",
    "    videos =  natsort.natsorted(os.listdir(dir))\n",
    "    print(videos)\n",
    "    \n",
    "    if not os.path.exists(out_dir):\n",
    "        os.mkdir(out_dir)\n",
    "    \n",
    "    for video in videos:\n",
    "        cmd = f\"\"\"ffmpeg -i {dir + video} -ss 00 -to 5 -y {out_dir + video}\"\"\"\n",
    "        print(cmd)\n",
    "        os.system(cmd)\n",
    "    \n",
    "    total_time = time.time() - stime\n",
    "    print(total_time, \"total_time\")\n",
    "    \n",
    "crop_video(\"input/\")\n",
    "    "
   ]
  },
  {
   "cell_type": "code",
   "execution_count": null,
   "id": "da367062",
   "metadata": {},
   "outputs": [],
   "source": [
    "#crop video without time\n",
    "\n",
    "import os \n",
    "import natsort\n",
    "\n",
    "out_dir = \"output/\"\n",
    "def crop_video(dir):\n",
    "    \n",
    "    videos =  natsort.natsorted(os.listdir(dir))\n",
    "    print(videos)\n",
    "    \n",
    "    if not os.path.exists(out_dir):\n",
    "        os.mkdir(out_dir)\n",
    "    \n",
    "    for video in videos:\n",
    "        cmd = f\"\"\"ffmpeg -i {dir + video} -ss 00 -to 5 -c copy -y {out_dir + video}\"\"\"\n",
    "        print(cmd)\n",
    "        os.system(cmd) # for running the code in script not in terminal\n",
    "        \n",
    "crop_video(\"input/\")\n",
    "    "
   ]
  },
  {
   "cell_type": "code",
   "execution_count": null,
   "id": "2b0acd21",
   "metadata": {},
   "outputs": [],
   "source": [
    "#crop video\n",
    "\n",
    "import os \n",
    "import natsort\n",
    "import time\n",
    "\n",
    "# linex user usr forward slash (\\)\n",
    "\n",
    "out_dir = \"output/\"\n",
    "def crop_video(dir):\n",
    "    stime = time.time()\n",
    "    \n",
    "    videos =  natsort.natsorted(os.listdir(dir))\n",
    "    print(videos)\n",
    "    \n",
    "    if not os.path.exists(out_dir):\n",
    "        os.mkdir(out_dir)\n",
    "    \n",
    "    for video in videos:\n",
    "        cmd = f\"\"\"ffmpeg -i {dir + video} -ss 00 -to 5 -c copy -y {out_dir + video}\"\"\"\n",
    "        print(cmd)\n",
    "        os.system(cmd)\n",
    "    \n",
    "    total_time = time.time() - stime\n",
    "    print(total_time, \"total_time\")\n",
    "    \n",
    "crop_video(\"input/\")\n",
    "    "
   ]
  },
  {
   "cell_type": "code",
   "execution_count": 1,
   "id": "0886c047",
   "metadata": {},
   "outputs": [],
   "source": [
    "# ffmpeg -i video.mp4 -vcodec copy -acodec copy -ss 01:02:03 -to 1:03:06 video.mp4"
   ]
  },
  {
   "cell_type": "code",
   "execution_count": 3,
   "id": "331b6647",
   "metadata": {},
   "outputs": [],
   "source": [
    "# ffmpeg -i ivideo.mp4 -qscalev:1 -vf fps =5 foldername/%.jpg"
   ]
  },
  {
   "cell_type": "code",
   "execution_count": null,
   "id": "c68cfee6",
   "metadata": {},
   "outputs": [],
   "source": [
    "# ffmpeg -i video.mp4 -qsacle:v 1 -vf fps=5 clipn/%.jpg"
   ]
  },
  {
   "cell_type": "code",
   "execution_count": null,
   "id": "af4a68da",
   "metadata": {},
   "outputs": [],
   "source": [
    "mport csv\n",
    "import os\n",
    "with open('update_csv.csv','r') as csvfile:\n",
    "    reader = csv.DictReader(csvfile) #objects csv.DictReader() class used to read CSV file as a dictionary.\n",
    "    for row in reader:\n",
    "        print(dict(row))\n",
    "        urls = row['Source Url']\n",
    "        try:\n",
    "            cmd  = \"wget {}\".format(urls) #if i want two variable so i print 2 {}{}\n",
    "            os.system(cmd)\n",
    "        except:\n",
    "            pass"
   ]
  },
  {
   "cell_type": "code",
   "execution_count": null,
   "id": "d86d438c",
   "metadata": {},
   "outputs": [],
   "source": []
  }
 ],
 "metadata": {
  "kernelspec": {
   "display_name": "Python 3 (ipykernel)",
   "language": "python",
   "name": "python3"
  },
  "language_info": {
   "codemirror_mode": {
    "name": "ipython",
    "version": 3
   },
   "file_extension": ".py",
   "mimetype": "text/x-python",
   "name": "python",
   "nbconvert_exporter": "python",
   "pygments_lexer": "ipython3",
   "version": "3.8.10"
  }
 },
 "nbformat": 4,
 "nbformat_minor": 5
}
